<?xml version="1.0" standalone="no"?>
<!DOCTYPE svg PUBLIC "-//W3C//DTD SVG 20010904//EN"
 "http://www.w3.org/TR/2001/REC-SVG-20010904/DTD/svg10.dtd">
<svg version="1.0" xmlns="http://www.w3.org/2000/svg"
 width="626.000000pt" height="626.000000pt" viewBox="0 0 626.000000 626.000000"
 preserveAspectRatio="xMidYMid meet">
<metadata>
Created by potrace 1.16, written by Peter Selinger 2001-2019
</metadata>
<g transform="translate(0.000000,626.000000) scale(0.100000,-0.100000)"
fill="#000000" stroke="none">
<path d="M0 3130 l0 -3130 3130 0 3130 0 0 3130 0 3130 -3130 0 -3130 0 0
-3130z m4260 1734 c-178 -52 -319 -144 -390 -254 -51 -79 -71 -159 -71 -280 0
-168 29 -283 167 -667 53 -147 97 -271 99 -277 1 -6 5 -18 8 -26 18 -46 47
-157 62 -243 23 -127 17 -269 -14 -346 -28 -68 -59 -113 -73 -105 -7 4 -8 2
-4 -5 10 -15 -13 -43 -27 -34 -6 4 -7 1 -3 -6 5 -8 0 -14 -13 -18 -12 -3 -21
-11 -21 -18 0 -7 -7 -18 -16 -26 -13 -10 -17 -10 -24 0 -4 8 -12 11 -18 7 -6
-4 -8 3 -5 16 4 20 3 21 -7 6 -6 -10 -16 -18 -22 -18 -6 0 -8 3 -5 7 4 3 2 12
-4 19 -7 9 -7 19 0 33 6 11 11 30 10 43 0 22 -1 22 -9 3 -8 -18 -9 -17 -9 8
-1 35 -30 156 -42 177 -5 8 -18 32 -30 53 l-20 39 58 -3 c77 -5 95 7 52 33
-19 11 -40 28 -47 37 -10 12 -11 12 -6 1 5 -8 -10 -2 -32 15 -55 41 -61 48
-56 64 3 8 0 11 -7 7 -6 -4 -11 -1 -11 8 0 8 -5 18 -12 22 -7 5 -9 2 -4 -7 5
-8 -10 6 -33 31 -22 25 -39 49 -38 55 2 5 -3 16 -10 24 -21 21 -10 23 53 12
67 -13 124 -14 124 -3 0 4 -13 21 -28 38 -15 17 -41 58 -57 90 -17 33 -32 61
-35 64 -10 9 -40 93 -35 98 2 3 10 0 17 -6 32 -26 198 -54 198 -33 0 19 -80
186 -88 184 -5 -1 -9 12 -9 28 0 17 -5 34 -13 39 -7 4 -9 14 -6 21 4 8 0 5 -8
-5 -9 -11 -16 -27 -16 -35 0 -14 1 -14 10 -1 5 8 10 11 10 5 0 -5 -4 -16 -9
-24 -12 -19 -25 21 -16 49 9 27 -3 25 -16 -2 -7 -18 -8 -15 -3 16 5 36 4 38
-10 27 -12 -10 -16 -10 -16 -1 0 6 -6 26 -14 43 -47 104 -70 412 -42 547 34
158 138 309 267 385 112 65 276 113 394 114 l60 0 -85 -25z m-1335 -24 c-10
-11 -26 -22 -36 -25 -10 -4 -18 -11 -16 -17 1 -7 -14 -20 -33 -30 -19 -11 -26
-16 -15 -13 16 5 15 1 -9 -24 -16 -17 -34 -28 -39 -24 -6 3 -7 1 -3 -6 7 -10
-29 -81 -40 -81 -3 0 -2 6 2 13 5 8 2 8 -9 -2 -14 -11 -17 -11 -17 0 0 8 -7 1
-15 -15 -8 -15 -15 -36 -15 -45 0 -14 -2 -14 -10 -1 -8 13 -10 13 -10 -2 0
-10 -7 -32 -15 -50 -9 -18 -21 -66 -28 -107 -7 -44 -17 -75 -25 -77 -7 -1 -8
0 -2 3 5 2 10 17 9 31 l0 27 -11 -25 c-17 -40 -22 -5 -8 62 31 161 127 286
304 397 58 36 66 38 41 11z m608 -309 c-36 -109 -53 -210 -52 -319 0 -94 18
-225 33 -250 4 -7 3 -12 -3 -12 -6 0 -13 16 -17 35 -3 19 -10 38 -15 41 -5 3
-6 -1 -3 -9 4 -11 -1 -13 -23 -9 -17 4 -22 7 -12 10 12 2 15 10 11 24 -5 20
-6 20 -19 3 -12 -17 -13 -15 -14 21 -1 21 -3 31 -6 22 -2 -10 -9 -18 -14 -18
-15 0 0 170 22 259 11 41 31 99 45 130 26 57 84 154 89 149 2 -2 -8 -36 -22
-77z m900 -1032 c12 -7 34 -22 48 -33 15 -13 54 -27 91 -34 36 -7 81 -19 100
-27 l33 -14 -56 -1 c-91 0 -155 -25 -222 -85 -58 -53 -123 -142 -112 -153 3
-4 10 0 15 8 9 13 10 13 11 0 0 -10 3 -8 9 5 6 13 9 15 9 5 1 -16 -98 -155
-105 -148 -2 3 -10 42 -19 89 -8 46 -26 117 -40 158 -14 41 -25 75 -25 76 0 1
20 5 45 8 25 4 60 14 78 24 l32 17 -60 11 c-60 11 -135 48 -135 66 0 5 15 9
33 9 17 1 59 7 92 14 76 18 150 19 178 5z"/>
</g>
</svg>
